<svg width="32" height="32" viewBox="0 0 32 32" fill="none" xmlns="http://www.w3.org/2000/svg">
<g clip-path="url(#clip0_2_342)">
<path d="M1.17348 18.7867L6.33348 24C6.45743 24.125 6.60489 24.2242 6.76737 24.2918C6.92985 24.3595 7.10413 24.3944 7.28014 24.3944C7.45616 24.3944 7.63043 24.3595 7.79291 24.2918C7.95539 24.2242 8.10286 24.125 8.22681 24C8.35178 23.876 8.45097 23.7286 8.51866 23.5661C8.58636 23.4036 8.62121 23.2293 8.62121 23.0533C8.62121 22.8773 8.58636 22.703 8.51866 22.5406C8.45097 22.3781 8.35178 22.2306 8.22681 22.1067L3.48014 17.3333H30.6668C31.0204 17.3333 31.3596 17.1928 31.6096 16.9428C31.8597 16.6927 32.0001 16.3536 32.0001 16C32.0001 15.6464 31.8597 15.3072 31.6096 15.0572C31.3596 14.8071 31.0204 14.6667 30.6668 14.6667H3.40014L8.22681 9.83999C8.46319 9.59202 8.59506 9.26258 8.59506 8.91999C8.59506 8.5774 8.46319 8.24796 8.22681 7.99999C8.10286 7.87502 7.95539 7.77582 7.79291 7.70813C7.63043 7.64044 7.45616 7.60559 7.28014 7.60559C7.10413 7.60559 6.92985 7.64044 6.76737 7.70813C6.60489 7.77582 6.45743 7.87502 6.33348 7.99999L1.17348 13.1333C0.424406 13.8833 0.00366211 14.9 0.00366211 15.96C0.00366211 17.02 0.424406 18.0367 1.17348 18.7867Z" fill="#555555"/>
</g>
<defs>
<clipPath id="clip0_2_342">
<rect width="32" height="32" fill="white"/>
</clipPath>
</defs>
</svg>
