<svg width="32" height="32" viewBox="0 0 32 32" fill="none" xmlns="http://www.w3.org/2000/svg">
<path d="M24.0001 16C23.9936 15.2985 23.711 14.6278 23.2134 14.1333L17.4934 8.39999C17.2436 8.15166 16.9057 8.01227 16.5534 8.01227C16.2012 8.01227 15.8633 8.15166 15.6134 8.39999C15.4885 8.52394 15.3893 8.67141 15.3216 8.83389C15.2539 8.99637 15.219 9.17064 15.219 9.34666C15.219 9.52267 15.2539 9.69695 15.3216 9.85943C15.3893 10.0219 15.4885 10.1694 15.6134 10.2933L20.0001 14.6667H6.66677C6.31315 14.6667 5.97401 14.8071 5.72396 15.0572C5.47391 15.3072 5.33344 15.6464 5.33344 16C5.33344 16.3536 5.47391 16.6927 5.72396 16.9428C5.97401 17.1928 6.31315 17.3333 6.66677 17.3333H20.0001L15.6134 21.72C15.3624 21.9693 15.2206 22.3081 15.2194 22.6619C15.2181 23.0157 15.3575 23.3556 15.6068 23.6066C15.8561 23.8577 16.1949 23.9995 16.5487 24.0007C16.9025 24.002 17.2424 23.8626 17.4934 23.6133L23.2134 17.88C23.7142 17.3822 23.9971 16.7061 24.0001 16Z" fill="#33B786"/>
</svg>
