<svg width="39" height="32" viewBox="0 0 39 32" fill="none" xmlns="http://www.w3.org/2000/svg">
<path d="M20.2349 11.1825H10.8704L13.4679 8.58496C13.7676 8.28542 13.936 7.87909 13.9361 7.45537C13.9362 7.03165 13.768 6.62525 13.4684 6.32556C13.1689 6.02588 12.7626 5.85746 12.3389 5.85736C11.9151 5.85726 11.5087 6.02549 11.209 6.32503L7.38996 10.1441C6.69213 10.8439 6.30026 11.7918 6.30026 12.78C6.30026 13.7682 6.69213 14.7161 7.38996 15.4159L11.209 19.235C11.5087 19.5345 11.9151 19.7027 12.3389 19.7026C12.7626 19.7025 13.1689 19.5341 13.4684 19.2344C13.768 18.9347 13.9362 18.5283 13.9361 18.1046C13.936 17.6809 13.7676 17.2746 13.4679 16.975L10.8704 14.3775H20.2349C20.6586 14.3775 21.0649 14.2092 21.3645 13.9096C21.6641 13.61 21.8324 13.2037 21.8324 12.78C21.8324 12.3563 21.6641 11.95 21.3645 11.6504C21.0649 11.3508 20.6586 11.1825 20.2349 11.1825Z" fill="#33B786"/>
<path d="M31.1699 16.1441L27.3508 12.325C27.0511 12.0255 26.6447 11.8573 26.221 11.8574C25.7973 11.8575 25.3909 12.0259 25.0914 12.3256C24.7919 12.6252 24.6236 13.0317 24.6237 13.4554C24.6238 13.8791 24.7922 14.2854 25.0919 14.585L27.6895 17.1825H18.3249C17.9012 17.1825 17.4949 17.3508 17.1953 17.6504C16.8957 17.95 16.7274 18.3563 16.7274 18.78C16.7274 19.2037 16.8957 19.61 17.1953 19.9096C17.4949 20.2092 17.9012 20.3775 18.3249 20.3775H27.6895L25.0919 22.975C24.7922 23.2746 24.6238 23.6809 24.6237 24.1046C24.6236 24.5283 24.7919 24.9347 25.0914 25.2344C25.3909 25.5341 25.7973 25.7025 26.221 25.7026C26.6447 25.7027 27.0511 25.5345 27.3508 25.235L31.1699 21.4159C31.8677 20.7161 32.2596 19.7682 32.2596 18.78C32.2596 17.7918 31.8677 16.8439 31.1699 16.1441Z" fill="#33B786"/>
</svg>
