<svg width="136" height="24" viewBox="0 0 136 24" fill="none" xmlns="http://www.w3.org/2000/svg">
<path d="M31.2276 1.4L24.5076 23H21.3426L16.2726 7.49C16.2126 7.32 16.1526 7.135 16.0926 6.935C16.0426 6.735 15.9926 6.52 15.9426 6.29C15.8926 6.52 15.8376 6.735 15.7776 6.935C15.7276 7.135 15.6726 7.32 15.6126 7.49L10.4976 23H7.33258L0.612578 1.4H3.55258C3.85258 1.4 4.10258 1.475 4.30258 1.625C4.51258 1.765 4.65258 1.96 4.72258 2.21L8.77258 16.055C8.85258 16.355 8.92758 16.68 8.99758 17.03C9.06758 17.38 9.13758 17.745 9.20758 18.125C9.27758 17.745 9.35258 17.38 9.43258 17.03C9.52258 16.67 9.61758 16.345 9.71758 16.055L14.3526 2.21C14.4226 2.01 14.5626 1.825 14.7726 1.655C14.9826 1.485 15.2326 1.4 15.5226 1.4H16.5426C16.8526 1.4 17.1026 1.48 17.2926 1.64C17.4826 1.79 17.6276 1.98 17.7276 2.21L22.3476 16.055C22.4476 16.345 22.5376 16.66 22.6176 17C22.7076 17.33 22.7876 17.68 22.8576 18.05C22.9276 17.68 22.9926 17.33 23.0526 17C23.1226 16.66 23.1976 16.345 23.2776 16.055L27.3126 2.21C27.3726 1.99 27.5076 1.8 27.7176 1.64C27.9376 1.48 28.1926 1.4 28.4826 1.4H31.2276ZM38.4081 7.46C39.5381 7.46 40.5581 7.645 41.4681 8.015C42.3881 8.385 43.1681 8.91 43.8081 9.59C44.4581 10.27 44.9581 11.095 45.3081 12.065C45.6581 13.035 45.8331 14.125 45.8331 15.335C45.8331 16.545 45.6581 17.635 45.3081 18.605C44.9581 19.575 44.4581 20.405 43.8081 21.095C43.1681 21.775 42.3881 22.3 41.4681 22.67C40.5581 23.04 39.5381 23.225 38.4081 23.225C37.2681 23.225 36.2381 23.04 35.3181 22.67C34.4081 22.3 33.6281 21.775 32.9781 21.095C32.3281 20.405 31.8281 19.575 31.4781 18.605C31.1281 17.635 30.9531 16.545 30.9531 15.335C30.9531 14.125 31.1281 13.035 31.4781 12.065C31.8281 11.095 32.3281 10.27 32.9781 9.59C33.6281 8.91 34.4081 8.385 35.3181 8.015C36.2381 7.645 37.2681 7.46 38.4081 7.46ZM38.4081 20.705C39.7881 20.705 40.8131 20.245 41.4831 19.325C42.1631 18.395 42.5031 17.07 42.5031 15.35C42.5031 13.63 42.1631 12.305 41.4831 11.375C40.8131 10.435 39.7881 9.965 38.4081 9.965C37.0081 9.965 35.9681 10.435 35.2881 11.375C34.6081 12.305 34.2681 13.63 34.2681 15.35C34.2681 17.07 34.6081 18.395 35.2881 19.325C35.9681 20.245 37.0081 20.705 38.4081 20.705ZM61.3687 23H58.2787C58.0287 23 57.8287 22.935 57.6787 22.805C57.5387 22.675 57.4237 22.53 57.3337 22.37L53.8087 16.715C53.7187 17.055 53.5987 17.35 53.4487 17.6L50.2537 22.37C50.1437 22.53 50.0187 22.675 49.8787 22.805C49.7487 22.935 49.5737 23 49.3537 23H46.4737L51.7687 15.11L46.6837 7.7H49.7737C50.0237 7.7 50.2037 7.74 50.3137 7.82C50.4337 7.89 50.5387 8 50.6287 8.15L54.0937 13.55C54.1837 13.22 54.3237 12.905 54.5137 12.605L57.4387 8.21C57.6387 7.87 57.8937 7.7 58.2037 7.7H61.1587L56.0737 14.975L61.3687 23Z" fill="#33B786"/>
<path d="M79.4816 20.225C80.2716 20.225 80.9366 20.135 81.4766 19.955C82.0266 19.765 82.4716 19.51 82.8116 19.19C83.1616 18.87 83.4116 18.495 83.5616 18.065C83.7216 17.625 83.8016 17.155 83.8016 16.655C83.8016 15.635 83.4516 14.835 82.7516 14.255C82.0616 13.665 80.9666 13.37 79.4666 13.37H75.1316V20.225H79.4816ZM75.1316 4.145V10.895H78.6416C80.1416 10.895 81.2616 10.605 82.0016 10.025C82.7416 9.445 83.1116 8.61 83.1116 7.52C83.1116 6.33 82.7616 5.47 82.0616 4.94C81.3716 4.41 80.2866 4.145 78.8066 4.145H75.1316ZM78.8066 1.4C80.1866 1.4 81.3666 1.535 82.3466 1.805C83.3266 2.065 84.1316 2.44 84.7616 2.93C85.3916 3.42 85.8516 4.02 86.1416 4.73C86.4416 5.43 86.5916 6.22 86.5916 7.1C86.5916 7.61 86.5116 8.105 86.3516 8.585C86.2016 9.055 85.9616 9.5 85.6316 9.92C85.3116 10.33 84.9066 10.7 84.4166 11.03C83.9266 11.36 83.3466 11.635 82.6766 11.855C85.7366 12.505 87.2666 14.13 87.2666 16.73C87.2666 17.65 87.0916 18.495 86.7416 19.265C86.4016 20.025 85.9016 20.685 85.2416 21.245C84.5916 21.795 83.7866 22.225 82.8266 22.535C81.8666 22.845 80.7716 23 79.5416 23H71.6216V1.4H78.8066ZM98.5619 16.31C97.4119 16.35 96.4419 16.445 95.6519 16.595C94.8619 16.735 94.2219 16.92 93.7319 17.15C93.2419 17.37 92.8869 17.635 92.6669 17.945C92.4569 18.255 92.3519 18.595 92.3519 18.965C92.3519 19.325 92.4069 19.635 92.5169 19.895C92.6369 20.145 92.7969 20.355 92.9969 20.525C93.2069 20.685 93.4469 20.805 93.7169 20.885C93.9969 20.955 94.3019 20.99 94.6319 20.99C95.4719 20.99 96.1919 20.835 96.7919 20.525C97.4019 20.205 97.9919 19.745 98.5619 19.145V16.31ZM90.0119 9.83C91.7419 8.22 93.8019 7.415 96.1919 7.415C97.0719 7.415 97.8519 7.56 98.5319 7.85C99.2219 8.13 99.7969 8.53 100.257 9.05C100.727 9.57 101.082 10.19 101.322 10.91C101.572 11.62 101.697 12.41 101.697 13.28V23H100.257C99.9469 23 99.7119 22.955 99.5519 22.865C99.3919 22.765 99.2569 22.57 99.1469 22.28L98.8319 21.035C98.4419 21.385 98.0569 21.7 97.6769 21.98C97.2969 22.25 96.9019 22.48 96.4919 22.67C96.0919 22.86 95.6569 23 95.1869 23.09C94.7269 23.19 94.2169 23.24 93.6569 23.24C93.0369 23.24 92.4569 23.155 91.9169 22.985C91.3869 22.815 90.9269 22.56 90.5369 22.22C90.1469 21.87 89.8369 21.44 89.6069 20.93C89.3869 20.42 89.2769 19.82 89.2769 19.13C89.2769 18.54 89.4319 17.965 89.7419 17.405C90.0619 16.845 90.5819 16.345 91.3019 15.905C92.0319 15.455 92.9869 15.085 94.1669 14.795C95.3569 14.505 96.8219 14.34 98.5619 14.3V13.28C98.5619 12.18 98.3269 11.36 97.8569 10.82C97.3869 10.28 96.6969 10.01 95.7869 10.01C95.1669 10.01 94.6469 10.09 94.2269 10.25C93.8069 10.4 93.4419 10.565 93.1319 10.745C92.8219 10.925 92.5469 11.095 92.3069 11.255C92.0669 11.405 91.8119 11.48 91.5419 11.48C91.3219 11.48 91.1319 11.425 90.9719 11.315C90.8219 11.195 90.6969 11.05 90.5969 10.88L90.0119 9.83ZM108.49 9.725C108.82 9.385 109.16 9.08 109.51 8.81C109.87 8.53 110.25 8.29 110.65 8.09C111.05 7.89 111.475 7.735 111.925 7.625C112.375 7.515 112.865 7.46 113.395 7.46C114.235 7.46 114.97 7.6 115.6 7.88C116.24 8.16 116.775 8.555 117.205 9.065C117.645 9.575 117.975 10.19 118.195 10.91C118.415 11.62 118.525 12.405 118.525 13.265V23H115.315V13.265C115.315 12.235 115.075 11.435 114.595 10.865C114.125 10.295 113.405 10.01 112.435 10.01C111.715 10.01 111.045 10.175 110.425 10.505C109.815 10.835 109.24 11.285 108.7 11.855V23H105.475V7.7H107.425C107.865 7.7 108.145 7.905 108.265 8.315L108.49 9.725ZM125.516 0.8V13.67H126.206C126.426 13.67 126.606 13.64 126.746 13.58C126.886 13.52 127.031 13.395 127.181 13.205L131.471 8.3C131.621 8.1 131.786 7.95 131.966 7.85C132.146 7.75 132.376 7.7 132.656 7.7H135.581L130.421 13.52C130.121 13.91 129.791 14.22 129.431 14.45C129.631 14.59 129.806 14.75 129.956 14.93C130.106 15.1 130.251 15.295 130.391 15.515L135.896 23H133.016C132.756 23 132.531 22.96 132.341 22.88C132.161 22.79 132.001 22.63 131.861 22.4L127.436 16.4C127.286 16.17 127.136 16.025 126.986 15.965C126.836 15.895 126.611 15.86 126.311 15.86H125.516V23H122.291V0.8H125.516Z" fill="black"/>
</svg>
